<svg aria-hidden="true" style="position: absolute; width: 0; height: 0; overflow: hidden;" version="1.1"
        xmlns="http://www.w3.org/2000/svg" xmlns:xlink="http://www.w3.org/1999/xlink"
        >
        <defs>
                <symbol id="golf1" viewBox="0 0 1280 1210">
                        <g transform="translate(0.000000,1210.000000) scale(0.100000,-0.100000)" stroke="none">
                                <path
                                        d="M12043 12087 c-5 -7 -29 -64 -53 -127 -87 -232 -1454 -3674 -1542 -3885 -73 -172 -119 -262 -173 -330 -87 -111 -182 -326 -702 -1590 -793 -1927 -847 -2053 -947 -2203 -70 -106 -197 -217 -322 -280 -102 -52 -306 -79 -471 -62 -207 21 -404 73 -923 245 -920 304 -1596 492 -2485 690 -821 184 -1429 281 -2160 347 -193 17 -736 17 -838 0 -209 -36 -492 -161 -677 -300 -190 -143 -383 -369 -481 -563 -86 -171 -184 -448 -218 -614 -43 -211 -60 -487 -42 -655 6 -58 16 -161 22 -230 48 -563 251 -1132 555 -1556 376 -525 831 -841 1333 -924 244 -41 604 -59 811 -41 74 6 200 16 280 22 1269 92 3936 803 4897 1304 249 129 451 283 704 535 356 354 750 870 933 1221 131 251 628 1407 926 2154 254 635 360 933 581 1630 l131 410 -7 85 c-3 47 -6 101 -7 121 -1 67 35 162 650 1729 236 602 527 1343 646 1647 119 303 241 612 272 685 30 73 56 137 57 142 3 16 -89 72 -275 166 -97 50 -178 90 -181 90 -8 0 -337 -831 -427 -1080 -101 -277 -131 -358 -570 -1505 -194 -506 -403 -1057 -466 -1225 -145 -384 -135 -359 -151 -376 -34 -33 -133 -3 -133 40 0 53 81 262 704 1826 216 542 483 1212 594 1490 110 278 234 586 276 685 42 98 74 185 72 192 -3 7 -45 33 -95 57 -67 34 -91 42 -98 33z m-1478 -4459 c49 -22 44 -101 -8 -126 -22 -11 -39 -11 -85 -2 -31 7 -65 16 -74 21 -29 16 -21 54 17 88 28 25 45 31 80 31 24 0 56 -5 70 -12z m-7785 -3968 c80 -6 287 -26 460 -45 335 -36 535 -51 825 -60 981 -32 1882 -155 2665 -365 102 -27 262 -68 355 -90 241 -58 381 -103 498 -163 193 -98 314 -252 369 -472 31 -124 31 -334 0 -446 -56 -206 -217 -416 -397 -518 -105 -60 -195 -93 -567 -205 -175 -53 -483 -155 -685 -227 -430 -154 -674 -235 -978 -325 -918 -272 -1669 -404 -2301 -404 -381 0 -639 34 -905 119 -112 36 -163 67 -258 156 -210 199 -355 507 -471 1005 -166 713 -189 1100 -82 1410 126 364 456 582 962 633 79 8 375 6 510 -3z" />
                                <path
                                        d="M4710 3215 c-102 -19 -513 -90 -915 -160 -1879 -325 -1987 -344 -2018 -362 -44 -25 -80 -97 -72 -143 14 -72 71 -120 145 -120 22 0 251 36 508 81 257 44 751 130 1097 190 347 60 828 143 1070 185 274 47 451 82 470 93 103 59 98 203 -8 251 -53 25 -55 25 -277 -15z" />
                                <path
                                        d="M5515 2760 c-711 -123 -866 -150 -2473 -425 -1528 -262 -1463 -249 -1497 -315 -8 -16 -15 -50 -15 -75 0 -39 5 -52 38 -86 30 -33 46 -42 82 -46 31 -3 352 48 1045 167 550 94 1023 175 1050 180 1351 229 2345 404 2370 418 42 24 79 101 71 147 -12 63 -92 129 -151 124 -5 0 -239 -41 -520 -89z" />
                                <path
                                        d="M6280 2299 c-316 -54 -1077 -185 -1690 -290 -613 -105 -1191 -204 -1285 -220 -93 -16 -443 -76 -777 -133 -651 -112 -649 -111 -683 -176 -46 -89 25 -210 122 -210 18 0 387 61 820 135 1267 217 3315 568 3738 640 238 41 400 73 418 83 66 39 92 143 51 200 -21 28 -98 73 -124 71 -8 0 -274 -45 -590 -100z" />
                                <path
                                        d="M5160 1519 c-569 -98 -1429 -247 -1910 -330 -561 -96 -886 -156 -905 -167 -17 -10 -40 -38 -54 -65 -29 -58 -23 -103 20 -152 57 -64 47 -65 624 35 626 108 2071 356 2795 481 328 56 536 97 554 107 50 29 71 67 71 127 0 48 -4 58 -35 90 -30 31 -84 57 -115 54 -5 0 -476 -81 -1045 -180z" />
                        </g>
                </symbol>
                <symbol id="golf2" viewBox="0 0 755 1280">
                        <g transform="translate(0.000000,1280.000000) scale(0.100000,-0.100000)" stroke="none">
                                <path
                                        d="M482 12793 c-12 -2 -44 -25 -72 -51 -47 -44 -59 -69 -231 -457 l-181 -410 5 -155 c5 -179 23 -251 89 -363 105 -179 295 -292 513 -304 166 -9 298 40 415 157 83 83 118 151 250 485 57 143 106 263 110 268 3 4 87 -26 186 -67 151 -62 1046 -430 1864 -766 118 -49 456 -187 750 -308 294 -121 866 -356 1270 -522 404 -166 813 -334 908 -373 94 -39 172 -73 171 -76 0 -3 -811 -566 -1802 -1251 -1931 -1335 -1912 -1321 -1996 -1462 -85 -145 -116 -280 -108 -463 10 -239 3 -218 461 -1287 l415 -967 -621 -1863 -621 -1863 -1 -100 c0 -168 50 -291 169 -410 115 -115 246 -173 410 -182 291 -15 459 103 550 387 20 61 1199 3436 1300 3720 l12 35 46 -140 47 -140 0 -1646 0 -1646 25 -97 c57 -228 188 -376 390 -443 71 -23 96 -26 220 -27 105 0 156 4 204 18 213 59 356 212 423 451 l23 80 3 1605 c2 1106 0 1634 -8 1699 -6 52 -21 124 -35 160 -13 36 -319 782 -679 1656 -361 875 -656 1593 -656 1596 0 6 223 164 1720 1218 787 554 752 528 877 643 203 186 246 263 247 438 1 120 -11 175 -63 275 -42 82 -158 203 -241 252 -30 18 -302 132 -605 253 -302 122 -975 393 -1495 602 -520 210 -1188 479 -1485 598 -297 120 -844 340 -1215 490 -1596 643 -1890 760 -1912 759 -13 -1 -33 -4 -46 -6z" />
                                <path
                                        d="M1800 10124 c-77 -10 -237 -47 -304 -71 -392 -141 -728 -477 -865 -866 -131 -371 -96 -745 103 -1100 148 -265 415 -501 697 -616 165 -67 282 -92 459 -98 182 -6 287 9 449 63 491 164 870 598 955 1093 20 120 21 322 1 437 -48 274 -187 536 -395 744 -204 204 -430 330 -700 391 -83 19 -322 33 -400 23z" />
                        </g>
                </symbol>
                <symbol id="home" viewBox="0 0 24 24" fill="none">
                        <path stroke-linecap="round" stroke-linejoin="round" stroke-width="2"
                                d="M3 12l2-2m0 0l7-7 7 7M5 10v10a1 1 0 001 1h3m10-11l2 2m-2-2v10a1 1 0 01-1 1h-3m-6 0a1 1 0 001-1v-4a1 1 0 011-1h2a1 1 0 011 1v4a1 1 0 001 1m-6 0h6" />
                </symbol>
                <symbol id="academic-cap" viewBox="0 0 24 24" fill="none">
                        <path d="M12 14l9-5-9-5-9 5 9 5z" />
                        <path
                                d="M12 14l6.16-3.422a12.083 12.083 0 01.665 6.479A11.952 11.952 0 0012 20.055a11.952 11.952 0 00-6.824-2.998 12.078 12.078 0 01.665-6.479L12 14z" />
                        <path stroke-linecap="round" stroke-linejoin="round" stroke-width="2"
                                d="M12 14l9-5-9-5-9 5 9 5zm0 0l6.16-3.422a12.083 12.083 0 01.665 6.479A11.952 11.952 0 0012 20.055a11.952 11.952 0 00-6.824-2.998 12.078 12.078 0 01.665-6.479L12 14zm-4 6v-7.5l4-2.222" />
                </symbol>
                <symbol id="user" viewBox="0 0 24 24" fill="none">
                        <path stroke-linecap="round" stroke-linejoin="round" stroke-width="2"
                                d="M16 7a4 4 0 11-8 0 4 4 0 018 0zM12 14a7 7 0 00-7 7h14a7 7 0 00-7-7z" />
                </symbol>
                <symbol id="menu" viewBox="0 0 24 24" fill="none">
                        <path stroke-linecap="round" stroke-linejoin="round" stroke-width="2"
                                d="M4 6h16M4 12h16M4 18h16" />
                </symbol>
                <symbol id="close" fill="none" viewBox="0 0 24 24">
                        <path stroke-linecap="round" stroke-linejoin="round" stroke-width="2"
                                d="M6 18L18 6M6 6l12 12" />
                </symbol>
                <symbol id="filter" fill="none" viewBox="0 0 24 24">
                        <path stroke-linecap="round" stroke-linejoin="round" stroke-width="2"
                                d="M3 4a1 1 0 011-1h16a1 1 0 011 1v2.586a1 1 0 01-.293.707l-6.414 6.414a1 1 0 00-.293.707V17l-4 4v-6.586a1 1 0 00-.293-.707L3.293 7.293A1 1 0 013 6.586V4z" />
                </symbol>
                <symbol id="sort-ascending" fill="none" viewBox="0 0 24 24">
                        <path stroke-linecap="round" stroke-linejoin="round" stroke-width="2" d="M3 4h13M3 8h9m-9 4h6m4 0l4-4m0 0l4 4m-4-4v12" />
                </symbol>
                <symbol id="sort-descending" fill="none" viewBox="0 0 24 24">
                        <path stroke-linecap="round" stroke-linejoin="round" stroke-width="2" d="M3 4h13M3 8h9m-9 4h9m5-4v12m0 0l-4-4m4 4l4-4" />
                </symbol>
                <symbol id="medal1" viewBox="0 0 491.768 491.768">
                        <path d="M174.048,136.543l39.925-83.12l18.234-37.966l-2.938-6.131C226.54,3.628,220.778,0,214.453,0H98.137 c-5.651,0-10.899,2.906-13.918,7.689c-3.001,4.783-3.338,10.772-0.898,15.859l72.508,150.957L174.048,136.543z" />
	                <path d="M174.048,136.543l39.925-83.12l18.234-37.966l-2.938-6.131C226.54,3.628,220.778,0,214.453,0H98.137 c-5.651,0-10.899,2.906-13.918,7.689c-3.001,4.783-3.338,10.772-0.898,15.859l72.508,150.957L174.048,136.543z" />
	                <path d="M407.548,7.689C404.53,2.906,399.281,0,393.63,0h-116.3c-6.323,0-12.088,3.628-14.815,9.326 l-89.814,187.012c-0.065,0.145-0.081,0.289-0.146,0.433c-0.143,0.322-0.209,0.675-0.337,1.013 c-0.577,1.559-0.913,3.211-0.994,4.959c-0.017,0.242-0.145,0.45-0.145,0.709v8.474c22.329-11.687,47.676-18.397,74.579-18.397 c26.922,0,52.252,6.711,74.597,18.414v-4.751l88.192-183.642C410.887,18.461,410.549,12.473,407.548,7.689z" />
	                <path d="M245.658,218.186c-75.559,0-136.8,61.24-136.8,136.799c0,75.543,61.241,136.783,136.8,136.783 c75.543,0,136.785-61.24,136.785-136.783C382.444,279.426,321.201,218.186,245.658,218.186z M326.966,331.1l-36.52,35.62 c-1.14,1.122-1.671,2.729-1.397,4.302l8.622,50.293c0.303,1.813-0.452,3.659-1.944,4.75c-1.492,1.092-3.483,1.221-5.105,0.369 l-45.17-23.738c-1.412-0.742-3.115-0.742-4.529,0l-45.17,23.738c-1.622,0.852-3.613,0.723-5.105-0.369 c-1.492-1.091-2.246-2.938-1.941-4.75l8.621-50.293c0.271-1.572-0.259-3.18-1.397-4.302l-36.52-35.62 c-1.331-1.302-1.797-3.227-1.236-4.977c0.58-1.768,2.104-3.05,3.918-3.307l50.516-7.337c1.574-0.225,2.939-1.219,3.645-2.664 l22.587-45.749c0.819-1.654,2.505-2.715,4.35-2.715c1.846,0,3.529,1.061,4.349,2.715l22.587,45.749 c0.705,1.445,2.069,2.439,3.645,2.664l50.516,7.337c1.813,0.257,3.34,1.539,3.918,3.307 C328.764,327.873,328.296,329.798,326.966,331.1z" />
                </symbol>
                <symbol id="medal" viewBox="0 0 491.768 491.768">
	                <path d="M244.95,215.1c-75.7,0-137.4,61.6-137.4,137.4c0,75.7,61.6,137.4,137.4,137.4s137.4-61.6,137.4-137.4 S320.65,215.1,244.95,215.1z M244.95,458.3c-58.4,0-105.9-47.5-105.9-105.9s47.5-105.8,105.9-105.8s105.9,47.5,105.9,105.9 S303.35,458.3,244.95,458.3z M315.35,338l-32.4,26.5l9.8,40.1c1.3,5.9-3.2,10.8-8.2,10.8c-1.5,0-3.1-0.4-4.6-1.4l-35.4-21.8 l-35,21.8c-1.5,1-3.1,1.4-4.6,1.4c-5.2,0-9.8-4.9-8.2-10.8l9.8-40.1l-32-26.4c-6-5.1-2.6-14.9,5.1-15.4l41.4-3l15.8-38.4 c1.5-3.6,4.8-5.4,8.1-5.4s6.6,1.8,8.1,5.4l15.8,38.4l41.4,3C317.85,323.1,321.35,332.9,315.35,338z M184.05,0l106.7,190.5 c-10.8-3.1-22.1-5.1-33.7-5.9L153.65,0H184.05z M194.25,191.9L86.75,0h31.2l104,185.8C212.45,187.1,203.15,189.1,194.25,191.9z M371.95,0h31.2l-90.5,161.6l-15.6-27.9L371.95,0z M336.25,0l-57,101.8l-15.2-27.1L305.85,0C305.85,0,336.25,0,336.25,0z"/>
                </symbol>
        </defs>
</svg>